<svg width="3690" height="432" viewBox="0 0 3690 432" fill="none" xmlns="http://www.w3.org/2000/svg">
<path d="M229.731 265.23C229.731 289.69 224.735 309.328 214.744 324.142C204.753 338.956 191.49 349.636 174.953 356.181C158.416 362.727 140.157 366 120.175 366H8.03632C2.86862 366 0.284767 363.588 0.284767 358.765V25.9653C0.284767 20.7976 2.86862 18.2138 8.03632 18.2138H99.5046C116.73 18.2138 132.922 19.075 148.081 20.7976C163.24 22.1757 176.676 25.7931 188.389 31.6498C200.103 37.162 209.232 46.1193 215.778 58.5218C222.324 70.5798 225.597 87.1164 225.597 108.132C225.597 114.678 224.391 122.946 221.979 132.937C219.568 142.928 215.606 152.574 210.093 161.876C204.581 171.178 197.346 178.068 188.389 182.547C186.322 183.236 185.461 184.441 185.805 186.164C186.494 187.542 187.356 188.576 188.389 189.265C199.758 194.777 209.404 204.768 217.328 219.237C225.597 233.707 229.731 249.038 229.731 265.23ZM146.014 264.713C146.014 250.588 144.119 240.253 140.329 233.707C136.54 226.817 131.028 222.51 123.793 220.788C116.558 218.721 107.601 217.687 96.9208 217.687H82.4512C80.0396 217.687 78.8338 218.721 78.8338 220.788V308.639C78.8338 310.017 79.0061 311.05 79.3506 311.739C79.6951 312.084 80.9009 312.256 82.968 312.256H103.639C107.773 312.256 112.252 311.911 117.075 311.222C122.243 310.189 126.893 308.294 131.028 305.538C135.506 302.437 139.124 297.786 141.88 291.585C144.636 285.039 146.014 276.082 146.014 264.713ZM142.913 111.749C142.913 100.036 140.674 91.4228 136.195 85.9106C131.717 80.0539 124.999 76.2643 116.041 74.5417C107.428 72.8191 96.5762 71.9579 83.4847 71.9579H82.4512C80.0396 71.9579 78.8338 73.5082 78.8338 76.6088V153.608C78.8338 156.019 80.2119 157.225 82.968 157.225H102.605C111.907 157.225 119.486 156.019 125.343 153.608C131.2 150.851 135.506 146.2 138.262 139.655C141.363 133.109 142.913 123.807 142.913 111.749ZM369.23 369.617C351.316 369.617 334.434 367.723 318.587 363.933C303.084 359.799 290.337 352.047 280.346 340.678C270.699 328.965 265.876 312.084 265.876 290.035C265.876 271.776 269.321 256.962 276.212 245.593C283.446 233.879 292.404 224.922 303.084 218.721C314.108 212.519 325.305 208.385 336.674 206.318C348.043 203.906 358.034 202.701 366.646 202.701C372.848 202.701 378.704 202.873 384.217 203.217C390.073 203.562 395.758 204.079 401.27 204.768C404.026 205.801 405.404 204.079 405.404 199.6C405.404 189.265 401.959 182.03 395.069 177.896C388.179 173.762 379.049 171.694 367.68 171.694C354.933 171.694 342.531 174.451 330.473 179.963C318.415 185.13 308.251 189.609 299.983 193.399C295.504 195.466 292.576 196.155 291.198 195.466C289.82 194.777 288.786 192.193 288.097 187.714L282.93 155.675C282.241 150.507 282.241 147.062 282.93 145.339C283.619 143.617 285.858 141.55 289.648 139.138C298.605 133.626 310.146 128.975 324.271 125.185C338.741 121.396 353.727 119.501 369.23 119.501C393.002 119.501 411.95 122.257 426.075 127.769C440.545 132.937 451.397 140.171 458.632 149.473C465.866 158.431 470.689 168.766 473.101 180.48C475.513 191.848 476.718 203.734 476.718 216.137C476.718 229.917 476.546 243.698 476.202 257.478C476.202 271.259 475.857 285.039 475.168 298.82C474.824 312.6 473.962 326.381 472.584 340.161C471.551 344.64 470.345 347.913 468.967 349.98C467.933 351.703 465.35 353.598 461.215 355.665C456.737 358.076 450.191 360.143 441.578 361.866C433.31 363.588 424.352 364.966 414.706 366C405.404 367.378 396.619 368.239 388.351 368.584C380.082 369.273 373.709 369.617 369.23 369.617ZM373.364 324.658C376.121 324.658 378.877 324.486 381.633 324.142C384.389 323.797 386.973 323.108 389.384 322.075C391.796 321.041 393.691 319.835 395.069 318.457C396.791 316.735 397.825 314.668 398.169 312.256C398.858 304.332 399.547 296.064 400.237 287.451C400.926 278.838 400.926 270.225 400.237 261.612C400.237 258.167 398.858 255.411 396.102 253.344C393.002 250.588 388.868 249.21 383.7 249.21C378.532 248.865 375.087 248.693 373.364 248.693C370.608 248.693 367.335 249.21 363.546 250.244C359.756 251.277 355.967 253.172 352.177 255.928C348.732 258.684 345.803 262.818 343.392 268.33C341.325 273.843 340.291 281.077 340.291 290.035C340.291 296.236 341.497 302.093 343.909 307.605C346.32 312.773 349.938 316.907 354.761 320.007C359.584 323.108 365.785 324.658 373.364 324.658ZM619.254 370.134C596.516 370.134 577.74 366.861 562.926 360.316C548.112 353.77 536.571 344.64 528.303 332.927C520.379 321.213 514.694 307.777 511.249 292.619C508.149 277.116 506.598 260.751 506.598 243.525C506.598 227.333 508.321 211.83 511.766 197.016C515.211 182.202 521.068 168.766 529.336 156.708C537.604 144.65 548.973 135.176 563.443 128.286C577.913 121.396 596.344 117.95 618.737 117.95C633.896 117.95 647.16 119.501 658.529 122.601C670.242 125.702 680.577 130.87 689.535 138.104C692.291 140.861 694.014 142.928 694.703 144.306C695.736 145.684 696.253 147.751 696.253 150.507V194.432C696.253 197.533 695.219 199.256 693.152 199.6C691.085 199.6 689.19 198.911 687.468 197.533C677.821 189.609 668.175 184.614 658.529 182.547C649.227 180.135 639.408 178.929 629.073 178.929C621.493 178.929 614.603 180.652 608.402 184.097C602.545 187.542 597.722 192.365 593.932 198.567C590.143 204.423 587.214 211.314 585.147 219.237C583.08 227.161 582.047 235.429 582.047 244.042C582.047 258.512 583.769 270.914 587.214 281.25C590.66 291.585 595.483 299.509 601.684 305.021C608.23 310.189 615.809 312.773 624.422 312.773C631.657 312.773 638.891 311.739 646.126 309.672C653.705 307.605 662.318 304.332 671.965 299.853C678.855 296.753 683.678 298.303 686.434 304.504L700.387 337.578C701.765 340.678 702.11 343.09 701.421 344.812C701.076 346.535 699.526 348.258 696.77 349.98C687.468 356.87 675.582 362.038 661.113 365.483C646.987 368.584 633.035 370.134 619.254 370.134ZM727.76 363.933V17.697C727.76 16.3189 728.449 15.6299 729.827 15.6299H801.658C803.036 15.6299 803.725 16.3189 803.725 17.697V199.083C803.725 199.772 803.725 200.978 803.725 202.701C804.069 204.079 804.414 204.768 804.758 204.768C805.447 204.768 806.136 204.423 806.825 203.734C807.859 203.045 808.548 202.528 808.893 202.184C811.304 199.772 813.027 197.877 814.06 196.499C815.438 194.777 817.161 192.193 819.228 188.748C823.707 181.858 827.496 175.656 830.597 170.144C833.698 164.287 836.626 158.258 839.382 152.057C842.138 145.511 845.239 137.932 848.684 129.319C850.406 125.53 852.129 123.463 853.852 123.118C855.919 122.429 859.364 122.085 864.187 122.085H925.166C928.611 122.085 930.334 123.29 930.334 125.702C930.334 127.769 929.989 129.492 929.3 130.87C928.611 132.592 926.716 136.726 923.616 143.272C920.859 149.818 917.07 157.742 912.247 167.044C907.423 176.001 901.911 185.475 895.71 195.466C889.853 205.112 883.307 214.242 876.073 222.855C874.695 224.577 873.489 225.955 872.455 226.989C871.422 228.022 870.388 229.228 869.355 230.606C870.044 230.951 871.077 231.468 872.455 232.157C874.178 232.846 875.211 233.535 875.556 234.224C881.413 240.08 887.442 248.176 893.643 258.512C900.189 268.503 906.39 279.355 912.247 291.068C918.103 302.782 923.443 313.978 928.266 324.658C933.09 334.994 936.879 343.607 939.635 350.497C942.736 357.387 944.459 361.177 944.803 361.866C946.181 364.622 945.664 366 943.253 366C942.219 366 938.085 366 930.85 366C923.96 366 916.208 366 907.596 366C898.983 366 891.059 366 883.824 366C876.934 366 872.972 366 871.939 366C870.56 366 869.699 366 869.355 366C869.01 365.655 868.321 364.45 867.288 362.383C867.288 362.383 865.91 359.971 863.153 355.148C860.742 350.325 857.469 344.296 853.335 337.061C849.201 329.482 844.894 321.73 840.416 313.806C836.281 305.882 832.492 298.82 829.047 292.619C825.946 286.073 823.707 281.594 822.329 279.183C821.295 276.427 819.572 273.326 817.161 269.881C815.094 266.436 812.854 263.68 810.443 261.612C808.376 259.545 806.481 259.718 804.758 262.129C804.069 263.163 803.725 265.919 803.725 270.398V363.933C803.725 365.311 803.036 366 801.658 366H729.827C728.449 366 727.76 365.311 727.76 363.933ZM947.67 240.942C947.67 217.515 950.942 196.672 957.488 178.412C964.034 159.809 975.575 145.339 992.112 135.004C1008.99 124.324 1032.59 118.984 1062.91 118.984C1076.69 118.984 1090.13 120.19 1103.22 122.601C1116.65 124.668 1128.54 127.597 1138.87 131.386C1148.52 134.832 1154.21 138.621 1155.93 142.755C1157.65 146.545 1159.03 153.091 1160.06 162.393C1163.51 191.676 1165.23 222.166 1165.23 253.861C1165.23 285.556 1163.33 315.701 1159.55 344.296C1155.76 374.268 1144.21 396.317 1124.92 410.442C1105.97 424.567 1080.13 431.63 1047.41 431.63C1034.31 431.63 1019.85 429.735 1004 425.945C988.494 422.156 973.68 415.093 959.555 404.758C958.177 403.724 956.799 401.829 955.421 399.073C954.388 396.317 954.732 393.561 956.455 390.805C958.177 388.049 960.933 383.398 964.723 376.852C968.513 370.306 971.269 365.655 972.991 362.899C975.747 358.076 977.814 355.492 979.193 355.148C980.915 354.803 983.843 356.009 987.978 358.765C991.078 361.177 995.901 363.761 1002.45 366.517C1009.34 369.273 1016.4 371.684 1023.63 373.752C1030.87 375.819 1036.38 376.852 1040.17 376.852C1044.31 376.852 1049.3 376.335 1055.16 375.302C1061.01 374.268 1066.35 372.029 1071.18 368.584C1076.35 365.139 1079.45 359.627 1080.48 352.047C1080.48 351.703 1080.48 351.358 1080.48 351.014C1080.82 350.669 1081 350.325 1081 349.98C1081.34 347.569 1081 345.501 1079.96 343.779C1079.27 341.712 1077.21 341.023 1073.76 341.712C1072.04 342.056 1069.11 342.401 1064.98 342.745C1061.19 342.745 1057.4 342.745 1053.61 342.745C1036.04 342.745 1019.16 339.3 1002.96 332.41C986.772 325.175 973.508 313.978 963.173 298.82C952.837 283.661 947.67 264.369 947.67 240.942ZM1026.74 228.022C1026.74 239.391 1027.6 249.727 1029.32 259.029C1031.39 267.986 1034.66 275.048 1039.14 280.216C1043.96 285.384 1050.68 287.968 1059.29 287.968C1063.08 287.968 1066.7 287.795 1070.14 287.451C1073.93 287.106 1077.21 286.245 1079.96 284.867C1083.41 283.489 1085.3 280.216 1085.65 275.048C1085.99 269.192 1086.16 261.785 1086.16 252.827C1086.16 243.87 1085.99 234.74 1085.65 225.439C1085.65 215.792 1085.47 207.179 1085.13 199.6C1085.13 192.021 1084.96 186.509 1084.61 183.063C1084.61 181.341 1084.27 179.274 1083.58 176.862C1082.89 174.106 1081.86 172.556 1080.48 172.211C1077.72 170.833 1074.79 169.8 1071.69 169.111C1068.94 168.422 1064.8 168.077 1059.29 168.077C1051.02 168.077 1044.48 170.661 1039.65 175.829C1035.18 180.996 1031.9 188.059 1029.84 197.016C1028.11 205.974 1027.08 216.309 1026.74 228.022ZM1284.87 120.017C1312.78 120.017 1335.69 124.152 1353.6 132.42C1357.39 134.143 1359.46 135.865 1359.8 137.588C1360.49 138.966 1360.49 140.861 1359.8 143.272L1349.47 179.963C1348.78 183.063 1347.74 184.958 1346.37 185.647C1345.33 185.992 1343.09 185.647 1339.65 184.614C1333.79 182.891 1327.25 181.685 1320.01 180.996C1312.78 179.963 1307.61 179.446 1304.51 179.446C1299 179.446 1294.69 179.618 1291.59 179.963C1288.83 180.307 1286.76 180.824 1285.39 181.513C1284.01 181.858 1282.8 182.374 1281.77 183.063C1280.39 184.097 1279.01 185.303 1277.64 186.681C1276.26 187.714 1275.57 190.643 1275.57 195.466V353.598C1275.57 359.11 1274.71 362.555 1272.98 363.933C1271.61 365.311 1269.02 366 1265.23 366H1207.35C1205.63 366 1203.91 365.483 1202.19 364.45C1200.81 363.072 1200.12 360.143 1200.12 355.665V150.507C1200.12 144.995 1200.64 141.55 1201.67 140.171C1203.05 138.449 1205.63 136.726 1209.42 135.004C1219.76 130.181 1232.16 126.563 1246.63 124.152C1261.1 121.396 1273.85 120.017 1284.87 120.017ZM1478.75 370.134C1448.09 370.134 1424.31 364.622 1407.43 353.598C1390.9 342.229 1379.36 326.898 1372.81 307.605C1366.61 288.312 1363.51 266.608 1363.51 242.492C1363.51 218.721 1367.13 197.533 1374.36 178.929C1381.59 159.981 1393.48 145.167 1410.02 134.487C1426.9 123.463 1449.81 117.95 1478.75 117.95C1507.69 117.95 1530.42 123.463 1546.96 134.487C1563.84 145.167 1575.9 159.981 1583.14 178.929C1590.37 197.533 1593.99 218.721 1593.99 242.492C1593.99 266.263 1590.71 287.795 1584.17 307.088C1577.97 326.381 1566.43 341.712 1549.55 353.081C1533.01 364.45 1509.41 370.134 1478.75 370.134ZM1477.71 312.773C1491.84 312.773 1501.66 306.916 1507.17 295.203C1513.03 283.145 1515.96 266.263 1515.96 244.559C1515.96 223.199 1512.85 207.007 1506.65 195.983C1500.45 184.958 1490.81 179.446 1477.71 179.446C1464.97 179.446 1455.49 184.958 1449.29 195.983C1443.09 207.007 1439.99 223.199 1439.99 244.559C1439.99 266.608 1442.75 283.489 1448.26 295.203C1454.11 306.916 1463.93 312.773 1477.71 312.773ZM1736.03 368.067C1707.09 368.067 1684.69 362.727 1668.85 352.047C1653.34 341.367 1642.49 327.242 1636.29 309.672C1630.43 291.757 1627.5 272.292 1627.5 251.277C1627.5 239.219 1627.68 226.644 1628.02 213.553C1628.71 200.461 1629.57 187.37 1630.61 174.278C1631.98 160.842 1633.36 148.268 1634.74 136.554C1635.43 129.319 1636.46 125.185 1637.84 124.152C1639.56 122.774 1643.18 122.085 1648.69 122.085H1697.27C1702.44 122.085 1706.23 122.257 1708.64 122.601C1711.05 122.601 1711.74 126.046 1710.7 132.937C1710.7 134.315 1710.36 139.31 1709.67 147.923C1709.33 156.536 1708.81 167.216 1708.12 179.963C1707.43 192.365 1706.92 205.112 1706.57 218.204C1706.23 231.295 1706.05 243.009 1706.05 253.344C1706.05 273.67 1708.47 288.14 1713.29 296.753C1718.11 305.366 1726.38 309.672 1738.09 309.672C1739.47 309.672 1741.19 309.672 1743.26 309.672C1745.67 309.328 1747.91 308.983 1749.98 308.639C1752.05 308.294 1753.77 307.605 1755.15 306.571C1756.52 305.193 1757.21 303.471 1757.21 301.404V132.42C1757.21 130.353 1757.39 128.114 1757.73 125.702C1758.08 123.29 1759.45 122.085 1761.86 122.085H1823.88C1825.26 122.085 1826.98 122.429 1829.04 123.118C1831.11 123.807 1832.15 126.046 1832.15 129.836V340.161C1832.15 344.296 1830.77 347.224 1828.01 348.947C1825.6 350.669 1820.43 352.908 1812.51 355.665C1808.37 357.043 1801.83 358.765 1792.87 360.832C1783.91 362.555 1774.27 364.277 1763.93 366C1753.94 367.378 1744.64 368.067 1736.03 368.067ZM1882.12 366C1876.26 366 1873.33 363.416 1873.33 358.248C1873.33 322.764 1873.33 287.451 1873.33 252.311C1873.33 216.826 1873.33 181.341 1873.33 145.856C1873.33 141.722 1874.71 138.793 1877.47 137.071C1880.22 135.348 1885.56 133.109 1893.49 130.353C1897.62 128.975 1904.17 127.424 1913.13 125.702C1922.08 123.635 1931.73 121.912 1942.06 120.534C1952.4 118.812 1961.7 117.95 1969.97 117.95C1999.25 117.95 2021.65 123.463 2037.15 134.487C2052.65 145.167 2063.33 159.464 2069.19 177.379C2075.05 194.949 2077.97 214.414 2077.97 235.774C2077.97 247.832 2077.63 260.579 2076.94 274.015C2076.6 287.106 2075.91 300.37 2074.87 313.806C2073.84 326.898 2072.63 339.472 2071.26 351.53C2070.57 358.765 2069.36 363.072 2067.64 364.45C2066.26 365.483 2062.82 366 2057.3 366H2008.73C2003.22 366 1999.43 365.311 1997.36 363.933C1995.64 362.555 1994.95 359.627 1995.29 355.148C1995.29 353.77 1995.64 348.258 1996.33 338.611C1997.01 328.965 1997.7 317.596 1998.39 304.504C1999.08 291.068 1999.6 278.149 1999.94 265.747C2000.63 253.344 2000.98 243.698 2000.98 236.807C2000.98 219.237 1999.6 206.318 1996.84 198.05C1994.09 189.437 1990.3 183.925 1985.47 181.513C1980.65 178.757 1974.79 177.379 1967.9 177.379C1965.49 177.379 1963.42 177.379 1961.7 177.379C1960.32 177.379 1958.95 177.551 1957.57 177.896C1954.12 178.24 1951.71 179.618 1950.33 182.03C1949.3 184.441 1948.78 188.576 1948.78 194.432C1948.78 207.524 1948.78 223.199 1948.78 241.458C1948.78 259.373 1948.78 278.321 1948.78 298.303C1948.78 318.285 1948.78 338.267 1948.78 358.248C1948.78 363.416 1946.72 366 1942.58 366H1882.12ZM2110.46 247.66C2111.15 221.477 2114.6 200.117 2120.8 183.58C2127.34 167.044 2135.78 154.124 2146.12 144.822C2156.46 135.521 2167.82 129.147 2180.23 125.702C2192.97 121.912 2205.72 120.017 2218.47 120.017C2222.26 120.017 2226.74 120.534 2231.9 121.568C2237.07 122.601 2241.21 123.463 2244.31 124.152C2246.03 124.496 2247.58 124.496 2248.96 124.152C2250.68 123.807 2251.54 122.257 2251.54 119.501C2251.54 113.299 2251.37 107.098 2251.02 100.897C2251.02 94.3512 2250.68 87.9777 2249.99 81.7765C2249.65 75.5752 2249.13 69.374 2248.44 63.1728C2247.75 56.627 2247.06 50.2535 2246.37 44.0523C2245.68 37.5065 2245 31.133 2244.31 24.9318C2243.27 18.0415 2243.44 14.0796 2244.82 13.0461C2246.2 11.668 2248.78 10.979 2252.57 10.979H2309.42C2312.18 10.979 2314.41 11.3235 2316.14 12.0125C2317.86 12.357 2318.89 13.9073 2319.24 16.6634C2320.62 29.4104 2321.82 45.258 2322.86 64.2063C2324.23 82.81 2325.27 103.136 2325.96 125.185C2326.64 147.234 2326.99 169.455 2326.99 191.848C2327.33 213.897 2327.16 234.913 2326.47 254.894C2326.13 274.876 2325.27 292.274 2323.89 307.088C2322.86 321.902 2321.13 332.582 2318.72 339.128C2317.34 343.607 2315.62 347.052 2313.55 349.463C2311.49 351.53 2306.32 353.942 2298.05 356.698C2291.85 359.11 2281.51 361.866 2267.04 364.966C2252.57 367.723 2236.38 369.101 2218.47 369.101C2205.03 369.101 2192.63 367.723 2181.26 364.966C2170.24 361.866 2160.42 357.387 2151.8 351.53C2138.02 342.229 2127.52 328.965 2120.28 311.739C2113.39 294.513 2110.12 273.154 2110.46 247.66ZM2187.98 248.176C2187.63 272.292 2190.56 288.829 2196.76 297.786C2202.96 306.744 2210.89 311.222 2220.53 311.222C2223.64 311.222 2226.56 311.05 2229.32 310.706C2232.42 310.361 2235.18 309.844 2237.59 309.155C2240.34 308.466 2242.76 307.777 2244.82 307.088C2245.51 306.399 2246.03 305.71 2246.37 305.021C2246.72 303.988 2246.89 302.61 2246.89 300.887C2247.23 293.652 2247.58 286.59 2247.92 279.699C2248.27 272.465 2248.44 265.402 2248.44 258.512C2248.78 251.277 2249.13 244.215 2249.47 237.324C2249.82 230.089 2249.99 223.027 2249.99 216.137C2250.34 208.902 2250.51 201.667 2250.51 194.432C2250.51 192.365 2250.34 190.987 2249.99 190.298C2249.65 189.609 2248.78 189.092 2247.41 188.748C2243.96 187.37 2239.83 186.164 2235 185.13C2230.53 183.752 2226.56 183.063 2223.12 183.063C2219.67 183.063 2215.88 183.925 2211.75 185.647C2207.62 187.025 2203.83 189.954 2200.38 194.432C2196.94 198.567 2194.01 204.94 2191.6 213.553C2189.53 222.166 2188.32 233.707 2187.98 248.176ZM2468.23 366C2460.99 366 2455.48 362.383 2451.69 355.148C2444.11 341.023 2436.19 323.625 2427.92 302.954C2419.99 281.939 2412.24 259.201 2404.66 234.74C2397.08 210.28 2389.85 185.647 2382.96 160.842C2376.41 135.693 2370.73 111.749 2365.9 89.0113C2361.08 66.2734 2357.46 46.2916 2355.05 29.0659C2354.71 25.9653 2354.88 23.3815 2355.57 21.3144C2356.26 19.2473 2358.33 18.2138 2361.77 18.2138C2361.77 18.2138 2364.7 18.2138 2370.56 18.2138C2376.41 18.2138 2383.13 18.2138 2390.71 18.2138C2398.29 18.2138 2405.18 18.2138 2411.38 18.2138C2417.93 18.2138 2421.72 18.2138 2422.75 18.2138C2425.85 18.2138 2428.09 18.7305 2429.47 19.7641C2430.85 20.7976 2431.71 23.2092 2432.05 26.9989C2433.43 36.3007 2435.67 48.7032 2438.77 64.2063C2442.21 79.7094 2447.73 102.62 2455.31 132.937C2460.82 154.641 2465.3 172.9 2468.74 187.714C2472.53 202.184 2475.63 214.07 2478.04 223.371C2480.46 232.673 2482.69 240.253 2484.76 246.109C2485.45 248.176 2485.97 249.554 2486.31 250.244C2487 250.933 2487.52 251.277 2487.86 251.277C2488.55 251.277 2488.72 251.277 2488.38 251.277C2488.38 251.277 2488.55 251.277 2488.9 251.277C2489.58 251.277 2490.1 250.76 2490.45 249.727C2491.14 248.349 2491.65 246.971 2492 245.593C2493.37 241.458 2495.1 236.463 2497.16 230.606C2499.58 224.405 2501.99 217.687 2504.4 210.452C2507.16 203.217 2509.74 195.638 2512.15 187.714C2514.56 179.791 2516.8 172.039 2518.87 164.46C2520.94 156.536 2522.49 148.957 2523.52 141.722C2525.24 130.697 2526.45 118.639 2527.14 105.548C2527.83 92.4564 2528.17 80.0539 2528.17 68.3405C2528.51 56.2825 2528.69 46.6361 2528.69 39.4013C2529.03 31.822 2529.2 28.3769 2529.2 29.0659C2528.86 25.9653 2528.86 23.3815 2529.2 21.3144C2529.89 19.2473 2532.13 18.2138 2535.92 18.2138C2536.96 18.2138 2540.4 18.2138 2546.26 18.2138C2552.46 18.2138 2559.18 18.2138 2566.41 18.2138C2573.99 18.2138 2580.71 18.2138 2586.57 18.2138C2592.77 18.2138 2596.38 18.2138 2597.42 18.2138C2600.17 18.2138 2602.07 18.7305 2603.1 19.7641C2604.48 20.7976 2605.17 23.2092 2605.17 26.9989C2605.51 41.1239 2606.2 55.5935 2607.24 70.4075C2608.27 84.8771 2609.48 97.6241 2610.85 108.649C2612.23 119.673 2613.09 127.424 2613.44 131.903C2615.5 149.129 2618.78 166.871 2623.26 185.13C2628.08 203.39 2634.11 222.682 2641.34 243.009C2642.72 246.454 2643.58 248.693 2643.93 249.727C2644.62 250.76 2645.13 251.277 2645.48 251.277C2646.17 251.277 2646.34 251.277 2645.99 251.277C2645.99 251.277 2646.17 251.277 2646.51 251.277C2647.2 251.277 2647.89 250.244 2648.58 248.176C2648.92 247.143 2650.47 242.492 2653.23 234.224C2655.98 225.955 2659.6 214.07 2664.08 198.567C2668.56 183.063 2673.55 164.287 2679.07 142.239C2683.2 127.08 2686.47 114.85 2688.89 105.548C2691.3 95.9015 2693.36 87.461 2695.09 80.2262C2696.81 72.9914 2698.36 65.5844 2699.74 58.0051C2701.46 50.0813 2703.36 40.4349 2705.42 29.0659C2706.11 24.2428 2707.15 21.3144 2708.52 20.2808C2709.9 18.9028 2711.97 18.2138 2714.72 18.2138C2715.76 18.2138 2719.2 18.2138 2725.06 18.2138C2731.26 18.2138 2737.98 18.2138 2745.21 18.2138C2752.79 18.2138 2759.51 18.2138 2765.37 18.2138C2771.57 18.2138 2775.19 18.2138 2776.22 18.2138C2782.42 18.2138 2784.49 22.3479 2782.42 30.6162C2778.98 45.4303 2774.5 63.6895 2768.99 85.3939C2763.82 107.098 2757.96 130.697 2751.41 156.191C2744.87 181.341 2737.98 206.49 2730.74 231.64C2723.85 256.445 2716.62 279.699 2709.04 301.404C2701.46 323.108 2693.88 341.023 2686.3 355.148C2685.96 356.526 2684.58 358.765 2682.17 361.866C2680.1 364.622 2677.17 366 2673.38 366C2670.63 366 2665.63 366 2658.4 366C2651.51 366 2644.44 366 2637.21 366C2630.32 366 2625.32 366 2622.22 366C2619.47 366 2616.88 364.45 2614.47 361.349C2612.06 357.904 2610.51 355.837 2609.82 355.148C2606.03 347.569 2601.9 339.3 2597.42 330.343C2593.28 321.041 2589.15 311.05 2585.02 300.37C2581.23 289.69 2577.26 278.666 2573.13 267.297C2571.75 262.474 2570.2 259.201 2568.48 257.478C2566.76 255.411 2564.52 258.512 2561.76 266.78C2555.9 284.35 2551.25 297.959 2547.81 307.605C2544.71 316.907 2542.12 324.142 2540.06 329.309C2538.33 334.133 2536.61 338.267 2534.89 341.712C2533.51 345.157 2531.44 349.636 2528.69 355.148C2527.31 358.593 2525.24 361.349 2522.49 363.416C2519.73 365.139 2517.49 366 2515.77 366C2513.01 366 2508.02 366 2500.78 366C2493.89 366 2487.17 366 2480.63 366C2474.08 366 2469.95 366 2468.23 366ZM2812.5 358.765C2812.5 300.198 2812.5 241.631 2812.5 183.063C2812.5 124.496 2812.5 65.9289 2812.5 7.3616C2812.5 2.53842 2815.26 0.126824 2820.77 0.126824C2830.76 0.126824 2840.75 0.126824 2850.74 0.126824C2861.08 0.126824 2871.24 0.126824 2881.23 0.126824C2886.06 0.126824 2888.47 2.53842 2888.47 7.3616C2888.47 25.6208 2888.47 44.0523 2888.47 62.656C2888.47 81.2597 2888.47 99.6912 2888.47 117.95C2888.47 121.051 2889.16 122.774 2890.54 123.118C2892.26 123.463 2893.81 123.29 2895.19 122.601C2896.91 121.912 2901.04 121.051 2907.59 120.017C2914.48 118.984 2920.68 118.467 2926.19 118.467C2942.73 118.467 2956.68 120.879 2968.05 125.702C2979.42 130.525 2988.38 137.76 2994.92 147.406C3001.81 157.053 3006.98 169.455 3010.43 184.614C3013.87 199.428 3015.94 216.998 3016.63 237.324C3017.32 252.138 3017.14 267.297 3016.11 282.8C3015.42 297.959 3014.22 312.428 3012.49 326.209C3011.11 339.645 3009.56 351.014 3007.84 360.316C3007.5 362.727 3006.46 364.277 3004.74 364.966C3003.02 365.655 3000.78 366 2998.02 366C2988.72 366 2979.42 366 2970.12 366C2960.82 366 2951.51 366 2942.21 366C2936.01 366 2932.57 365.483 2931.88 364.45C2931.53 363.072 2932.05 358.937 2933.43 352.047C2935.15 338.956 2936.53 325.175 2937.56 310.706C2938.59 296.236 2939.28 281.939 2939.63 267.814C2939.97 254.378 2939.97 241.975 2939.63 230.606C2939.28 219.237 2938.08 209.246 2936.01 200.634C2933.94 192.021 2930.5 185.475 2925.68 180.996C2921.2 176.173 2914.48 173.762 2905.52 173.762C2903.8 173.762 2902.08 173.934 2900.35 174.278C2898.63 174.623 2896.91 175.14 2895.19 175.829C2893.12 176.518 2891.4 177.896 2890.02 179.963C2888.98 181.685 2888.47 183.925 2888.47 186.681V358.765C2888.47 363.588 2886.06 366 2881.23 366H2820.77C2815.26 366 2812.5 363.588 2812.5 358.765ZM3050.58 243.525C3050.58 227.333 3052.3 211.83 3055.75 197.016C3059.19 182.202 3065.05 168.766 3073.32 156.708C3081.59 144.65 3092.96 135.176 3107.43 128.286C3121.89 121.396 3140.33 117.95 3162.72 117.95C3185.8 117.95 3204.23 121.223 3218.01 127.769C3231.79 133.97 3242.13 142.411 3249.02 153.091C3256.25 163.771 3260.91 175.484 3262.97 188.231C3265.38 200.978 3266.59 213.553 3266.59 225.955C3266.59 240.769 3264.7 250.76 3260.91 255.928C3257.46 261.096 3252.12 263.68 3244.89 263.68H3131.71C3129.3 263.68 3127.92 264.196 3127.58 265.23C3127.23 265.919 3127.06 267.469 3127.06 269.881C3127.06 278.494 3129.3 286.417 3133.78 293.652C3138.6 300.542 3145.15 306.227 3153.42 310.706C3161.69 314.84 3171.16 316.907 3181.84 316.907C3193.21 316.907 3203.72 315.012 3213.36 311.222C3223.01 307.088 3229.56 303.988 3233 301.921C3237.82 299.164 3241.44 297.614 3243.85 297.27C3246.61 296.581 3249.54 299.337 3252.64 305.538L3265.04 329.826C3267.45 334.305 3267.97 337.405 3266.59 339.128C3265.56 340.851 3262.97 343.09 3258.84 345.846C3246.78 354.459 3231.97 360.66 3214.4 364.45C3197.17 368.239 3180.12 370.134 3163.24 370.134C3140.15 370.134 3121.21 366.861 3106.39 360.316C3091.92 353.77 3080.55 344.64 3072.28 332.927C3064.36 321.213 3058.68 307.777 3055.23 292.619C3052.13 277.116 3050.58 260.751 3050.58 243.525ZM3190.11 213.553C3190.11 204.595 3188.9 197.361 3186.49 191.848C3184.42 185.992 3181.15 181.685 3176.67 178.929C3172.54 176.173 3167.2 174.795 3160.65 174.795C3155.14 174.795 3150.32 175.829 3146.18 177.896C3142.39 179.963 3139.12 182.891 3136.36 186.681C3133.95 190.126 3131.89 194.088 3130.16 198.567C3128.79 202.701 3127.75 206.835 3127.06 210.969C3126.72 217.17 3126.72 220.96 3127.06 222.338C3127.41 223.371 3128.79 223.888 3131.2 223.888H3184.94C3187.7 223.888 3189.25 223.371 3189.59 222.338C3190.28 221.304 3190.45 218.376 3190.11 213.553ZM3385.26 120.017C3413.16 120.017 3436.07 124.152 3453.99 132.42C3457.78 134.143 3459.84 135.865 3460.19 137.588C3460.88 138.966 3460.88 140.861 3460.19 143.272L3449.85 179.963C3449.16 183.063 3448.13 184.958 3446.75 185.647C3445.72 185.992 3443.48 185.647 3440.04 184.614C3434.18 182.891 3427.63 181.685 3420.4 180.996C3413.16 179.963 3408 179.446 3404.89 179.446C3399.38 179.446 3395.08 179.618 3391.98 179.963C3389.22 180.307 3387.15 180.824 3385.77 181.513C3384.4 181.858 3383.19 182.374 3382.16 183.063C3380.78 184.097 3379.4 185.303 3378.02 186.681C3376.64 187.714 3375.96 190.643 3375.96 195.466V353.598C3375.96 359.11 3375.09 362.555 3373.37 363.933C3371.99 365.311 3369.41 366 3365.62 366H3307.74C3306.02 366 3304.3 365.483 3302.57 364.45C3301.2 363.072 3300.51 360.143 3300.51 355.665V150.507C3300.51 144.995 3301.02 141.55 3302.06 140.171C3303.44 138.449 3306.02 136.726 3309.81 135.004C3320.14 130.181 3332.55 126.563 3347.02 124.152C3361.49 121.396 3374.23 120.017 3385.26 120.017ZM3471.47 243.525C3471.47 227.333 3473.19 211.83 3476.63 197.016C3480.08 182.202 3485.93 168.766 3494.2 156.708C3502.47 144.65 3513.84 135.176 3528.31 128.286C3542.78 121.396 3561.21 117.95 3583.6 117.95C3606.69 117.95 3625.12 121.223 3638.9 127.769C3652.68 133.97 3663.01 142.411 3669.9 153.091C3677.14 163.771 3681.79 175.484 3683.86 188.231C3686.27 200.978 3687.48 213.553 3687.48 225.955C3687.48 240.769 3685.58 250.76 3681.79 255.928C3678.35 261.096 3673.01 263.68 3665.77 263.68H3552.6C3550.19 263.68 3548.81 264.196 3548.46 265.23C3548.12 265.919 3547.95 267.469 3547.95 269.881C3547.95 278.494 3550.19 286.417 3554.67 293.652C3559.49 300.542 3566.03 306.227 3574.3 310.706C3582.57 314.84 3592.04 316.907 3602.72 316.907C3614.09 316.907 3624.6 315.012 3634.25 311.222C3643.89 307.088 3650.44 303.988 3653.89 301.921C3658.71 299.164 3662.33 297.614 3664.74 297.27C3667.49 296.581 3670.42 299.337 3673.52 305.538L3685.92 329.826C3688.34 334.305 3688.85 337.405 3687.48 339.128C3686.44 340.851 3683.86 343.09 3679.72 345.846C3667.67 354.459 3652.85 360.66 3635.28 364.45C3618.06 368.239 3601 370.134 3584.12 370.134C3561.04 370.134 3542.09 366.861 3527.28 360.316C3512.81 353.77 3501.44 344.64 3493.17 332.927C3485.25 321.213 3479.56 307.777 3476.12 292.619C3473.02 277.116 3471.47 260.751 3471.47 243.525ZM3610.99 213.553C3610.99 204.595 3609.79 197.361 3607.38 191.848C3605.31 185.992 3602.04 181.685 3597.56 178.929C3593.42 176.173 3588.08 174.795 3581.54 174.795C3576.03 174.795 3571.2 175.829 3567.07 177.896C3563.28 179.963 3560.01 182.891 3557.25 186.681C3554.84 190.126 3552.77 194.088 3551.05 198.567C3549.67 202.701 3548.64 206.835 3547.95 210.969C3547.6 217.17 3547.6 220.96 3547.95 222.338C3548.29 223.371 3549.67 223.888 3552.08 223.888H3605.83C3608.58 223.888 3610.13 223.371 3610.48 222.338C3611.17 221.304 3611.34 218.376 3610.99 213.553Z" fill="#303030"/>
</svg>
